<svg width="70" height="73" fill="none" xmlns="http://www.w3.org/2000/svg"><path d="M65.283.08L15.785 8.702c-2.869.5-5.607 3.203-6.114 6.039l-1.88 10.528c1.448-.548 3.114-.949 5.024-1.186l-.038-3.608h8.803c-.025.758-.037 1.96-.037 3.607 4.226.523 7.335 1.798 9.324 3.823 1.989 2.027 2.984 4.661 2.984 7.902 0 6.85-4.116 10.77-12.346 11.763l.075 3.49h-8.802l.037-3.529c-3.66-.457-6.474-1.488-8.445-3.09L.08 68.47c-.506 2.834 1.41 4.728 4.28 4.229l49.497-8.622c2.87-.5 5.61-3.205 6.115-6.04l1.415-7.934c-2.528.897-5.24 1.352-8.141 1.352-5.62 0-9.76-1.256-12.421-3.766-2.661-2.509-3.992-6.09-3.992-10.744 0-4.68 1.33-8.378 3.992-11.097 2.66-2.719 6.8-4.078 12.42-4.078 5.382 0 9.542 1.332 12.486 3.992L69.56 4.31c.51-2.838-1.41-4.73-4.278-4.23z" fill="url(#paint0_linear)"/><path d="M57.742 30.67c-1.553-.706-3.14-1.06-4.755-1.06-2.387 0-4.165.661-5.334 1.98-1.17 1.32-1.754 2.948-1.754 4.883 0 2.091.628 3.797 1.883 5.117 1.256 1.32 3.177 1.98 5.763 1.98 2.065 0 3.705-.36 4.924-1.079 1.218-.719 2.114-1.862 2.686-3.43.616.347 1.29.709 2.011 1.083l1.421-7.964a80.73 80.73 0 00-3.432 1.744c-.721-1.463-1.859-2.549-3.413-3.254z" fill="url(#paint1_linear)"/><path d="M12.89 35.375v-3.45c-2.289.601-3.432 1.895-3.432 3.88 0 .995.273 1.819.82 2.472.547.653 1.417 1.136 2.611 1.45v-4.352z" fill="url(#paint2_linear)"/><path d="M21.58 31.925l-.037 3.45a184.63 184.63 0 00-.037 4.393c1.218-.314 2.107-.797 2.666-1.452.56-.653.84-1.49.84-2.51 0-1.985-1.144-3.279-3.431-3.881z" fill="url(#paint3_linear)"/><defs><linearGradient id="paint0_linear" x1="65.495" y1="3.74" x2=".144" y2="66.68" gradientUnits="userSpaceOnUse"><stop stop-color="#6656A5"/><stop offset="1" stop-color="#482F89"/></linearGradient><linearGradient id="paint1_linear" x1="61.142" y1="29.766" x2="48.713" y2="41.736" gradientUnits="userSpaceOnUse"><stop stop-color="#6656A5"/><stop offset="1" stop-color="#482F89"/></linearGradient><linearGradient id="paint2_linear" x1="14.244" y1="33.725" x2="10.045" y2="37.769" gradientUnits="userSpaceOnUse"><stop stop-color="#6656A5"/><stop offset="1" stop-color="#482F89"/></linearGradient><linearGradient id="paint3_linear" x1="24.166" y1="33.752" x2="19.92" y2="37.841" gradientUnits="userSpaceOnUse"><stop stop-color="#6656A5"/><stop offset="1" stop-color="#482F89"/></linearGradient></defs></svg>