<svg width="124" height="42" fill="none" xmlns="http://www.w3.org/2000/svg"><path d="M8.534 13.21v1.353H7.301V13.21C3.1 13.06.616 11.01.616 7.516.616 4.02 3.1 1.972 7.3 1.822V.506h1.233v1.316c4.184.15 6.686 2.217 6.686 5.694 0 3.496-2.485 5.563-6.686 5.694zM7.301 12.1V2.95c-3.45.15-5.417 1.748-5.417 4.566 0 2.838 2.02 4.417 5.417 4.585zm6.65-4.584c0-2.82-2.002-4.435-5.417-4.567v9.152c3.432-.15 5.416-1.768 5.416-4.585zm3.968-3.288h1.27v7.855l6.273-7.855h1.126v9.884h-1.269V6.258l-6.257 7.856h-1.144V4.228zm12.298 0h1.27v4.378h5.916V4.228h1.269v9.884h-1.269v-4.36h-5.916v4.36h-1.27V4.229zm19.11 3.758v6.126H48.11v-1.54c-.572 1.014-1.68 1.635-3.235 1.635-2.128 0-3.433-1.165-3.433-2.876 0-1.522.93-2.8 3.63-2.8h2.984V7.93c0-1.69-.913-2.611-2.664-2.611-1.215 0-2.36.45-3.127 1.165l-.572-.997c.946-.846 2.342-1.334 3.825-1.334 2.43 0 3.808 1.278 3.808 3.834zm-1.27 3.158V9.527h-2.95c-1.822 0-2.413.752-2.413 1.767 0 1.146.877 1.86 2.379 1.86 1.428 0 2.483-.714 2.984-2.01zm4.647-6.916h1.27v4.378h5.917V4.228h1.268v9.884h-1.268v-4.36h-5.917v4.36h-1.27V4.229zM63.86 9.17c0-2.951 2.037-5.018 4.844-5.018 1.59 0 2.93.658 3.682 1.954l-.948.676c-.643-.996-1.644-1.465-2.734-1.465-2.057 0-3.558 1.54-3.558 3.852 0 2.33 1.501 3.852 3.558 3.852 1.09 0 2.09-.45 2.734-1.447l.948.677c-.751 1.277-2.091 1.954-3.682 1.954-2.806.002-4.845-2.085-4.845-5.035zm9.902 0c0-2.931 2.038-5.018 4.79-5.018 2.753 0 4.774 2.086 4.774 5.018 0 2.931-2.021 5.037-4.773 5.037-2.753 0-4.79-2.106-4.79-5.037zm8.276 0c0-2.311-1.483-3.852-3.485-3.852-2.003 0-3.504 1.54-3.504 3.852 0 2.311 1.502 3.852 3.504 3.852s3.485-1.54 3.485-3.852zm11.905 2.255c0 1.71-1.18 2.688-3.628 2.688h-4.273V4.228h4.147c2.129 0 3.434.901 3.434 2.536 0 1.109-.608 1.86-1.591 2.237 1.303.32 1.911 1.128 1.911 2.424zm-6.668-2.8H90.1c1.448 0 2.252-.583 2.252-1.69 0-1.11-.803-1.654-2.252-1.654h-2.825v3.344zm5.417 2.725c0-1.184-.715-1.729-2.306-1.729h-3.11v3.439h2.984c1.592 0 2.432-.526 2.432-1.71zm11.797-.47c0 2.105-1.376 3.289-3.861 3.252l-3.718-.019V4.228h1.269v3.457l2.682.038c2.359.019 3.628 1.128 3.628 3.157zm-1.286 0c0-1.465-.894-2.142-2.647-2.16l-2.377-.039v4.399l2.377.037c1.734.018 2.647-.753 2.647-2.237zm2.86-6.652h1.268v9.884h-1.268V4.229zm4.879 0h1.269v7.855l6.275-7.855h1.126v9.885h-1.269V6.257l-6.258 7.856h-1.143V4.228zm1.609-3.853h.911c.017.996.733 1.616 1.752 1.616 1.019 0 1.734-.62 1.77-1.616h.912c-.035 1.579-1.091 2.443-2.682 2.443s-2.627-.864-2.663-2.443zM.759 31.477c0-3.853 2.788-6.692 6.56-6.692 1.823 0 3.468.64 4.576 1.917l-.84.883c-1.018-1.09-2.27-1.559-3.7-1.559-3.021 0-5.291 2.331-5.291 5.45 0 3.12 2.27 5.449 5.29 5.449 1.43 0 2.683-.47 3.701-1.578l.84.883c-1.108 1.277-2.753 1.935-4.593 1.935-3.755 0-6.543-2.837-6.543-6.688zm21.558-3.308l-4.702 11.07c-.787 1.936-1.788 2.555-3.128 2.555-.876 0-1.716-.3-2.287-.901l.59-.997c.464.489 1.037.751 1.715.751.84 0 1.413-.412 1.948-1.652l.412-.96-4.201-9.865h1.322l3.54 8.4 3.539-8.4h1.252v-.001zm10.421 0v9.885H31.47v-8.702h-5.9v8.702H24.3v-9.885h8.438zm11.833 5.356h-7.865c.143 2.067 1.645 3.44 3.7 3.44 1.144 0 2.163-.433 2.878-1.298l.715.865c-.84 1.052-2.146 1.617-3.628 1.617-2.932 0-4.934-2.106-4.934-5.037 0-2.93 1.948-5.018 4.594-5.018 2.645 0 4.558 2.048 4.558 5.018.001.111-.018.262-.018.413zm-7.865-.997h6.668c-.16-1.936-1.503-3.288-3.343-3.288-1.823 0-3.164 1.353-3.325 3.288zm20.218.584c0 3.006-2.003 5.036-4.684 5.036-1.502 0-2.788-.676-3.574-1.955v5.508h-1.27V28.169h1.216v1.954c.768-1.315 2.074-2.03 3.628-2.03 2.682 0 4.684 2.03 4.684 5.019zm-1.27 0c0-2.294-1.52-3.853-3.503-3.853-2.002 0-3.504 1.559-3.504 3.853 0 2.311 1.503 3.852 3.504 3.852 1.983 0 3.503-1.54 3.503-3.852zm14.516-4.943v9.885h-1.162v-7.817L65.2 36.851h-.573l-3.807-6.634v7.837h-1.162V28.17h1.286l3.987 7.122 4.058-7.122h1.18zm10.653 3.759v6.126h-1.216v-1.54c-.572 1.015-1.68 1.634-3.234 1.634-2.129 0-3.434-1.165-3.434-2.875 0-1.522.93-2.8 3.63-2.8h2.985v-.602c0-1.69-.913-2.612-2.664-2.612-1.215 0-2.36.45-3.128 1.165l-.572-.997c.947-.845 2.343-1.334 3.825-1.334 2.432 0 3.808 1.28 3.808 3.835zm-1.268 3.156v-1.616h-2.95c-1.823 0-2.413.751-2.413 1.766 0 1.147.876 1.861 2.378 1.861 1.429.001 2.483-.713 2.985-2.01zm14.175-1.972c0 3.006-2.003 5.036-4.684 5.036-1.503 0-2.788-.676-3.575-1.955v5.508h-1.27V28.169h1.217v1.954c.768-1.315 2.073-2.03 3.628-2.03 2.682 0 4.683 2.03 4.683 5.019zm-1.27 0c0-2.294-1.52-3.853-3.503-3.853-2.003 0-3.504 1.559-3.504 3.853 0 2.311 1.502 3.852 3.504 3.852 1.983 0 3.502-1.54 3.502-3.852zm7.418.544h-2.145v4.398h-1.269V28.17h1.269v4.341h2.162l3.308-4.341h1.377l-3.701 4.792 3.969 5.093h-1.502l-3.468-4.398zm14.854-.131h-7.866c.144 2.067 1.645 3.44 3.701 3.44 1.144 0 2.163-.433 2.878-1.298l.716.865c-.84 1.052-2.145 1.617-3.629 1.617-2.932 0-4.934-2.106-4.934-5.037 0-2.93 1.948-5.018 4.594-5.018 2.647 0 4.558 2.048 4.558 5.018 0 .111-.018.262-.018.413zm-7.866-.997h6.669c-.162-1.936-1.502-3.288-3.344-3.288-1.822 0-3.163 1.353-3.325 3.288zm16.893-3.176h-3.557v8.702h-1.268v-8.702h-3.559v-1.183h8.384v1.183z" fill="#000"/></svg>