<svg width="360" height="376" fill="none" xmlns="http://www.w3.org/2000/svg"><path d="M337.091.987L81.871 45.443C67.082 48.017 52.96 61.956 50.35 76.58l-9.69 54.283c7.46-2.825 16.054-4.889 25.898-6.115l-.193-18.602h45.387c-.127 3.91-.192 10.107-.192 18.602 21.794 2.695 37.821 9.268 48.077 19.711 10.257 10.45 15.388 24.033 15.388 40.74 0 35.317-21.224 55.538-63.658 60.654l.385 17.998H66.368l.193-18.197c-18.873-2.359-33.383-7.673-43.547-15.93L.9 353.608c-2.61 14.615 7.273 24.382 22.068 21.808l255.215-44.457c14.799-2.578 28.921-16.525 31.527-31.14l7.3-40.91c-13.036 4.626-27.023 6.969-41.98 6.969-28.974 0-50.326-6.476-64.043-19.415-13.722-12.939-20.582-31.408-20.582-55.4 0-24.126 6.857-43.198 20.582-57.218 13.717-14.02 35.065-21.026 64.043-21.026 27.746 0 49.198 6.865 64.378 20.581l19.739-110.606C361.773 8.163 351.882-1.59 337.091.987z" fill="#fff"/><path d="M298.21 158.712c-8.011-3.638-16.189-5.459-24.52-5.459-12.308 0-21.475 3.403-27.504 10.207s-9.039 15.198-9.039 25.174c0 10.783 3.237 19.577 9.709 26.385 6.472 6.808 16.378 10.212 29.714 10.212 10.645 0 19.103-1.858 25.39-5.566 6.279-3.707 10.895-9.604 13.848-17.691a343.912 343.912 0 0010.368 5.59l7.326-41.065a417.332 417.332 0 00-17.694 8.994c-3.719-7.545-9.586-13.142-17.598-16.781zm-231.268 24.26V165.18c-11.797 3.104-17.695 9.774-17.695 20.014 0 5.124 1.41 9.374 4.231 12.741 2.822 3.368 7.307 5.857 13.464 7.48v-22.443zm44.813-17.788l-.193 17.792c-.131 4.987-.192 12.539-.192 22.649 6.279-1.619 10.864-4.112 13.748-7.487 2.887-3.368 4.327-7.682 4.327-12.94 0-10.24-5.898-16.91-17.69-20.014z" fill="#fff"/></svg>