<svg width="22" height="22" fill="none" xmlns="http://www.w3.org/2000/svg"><path d="M6.948 17.328c-1.256 0-2.274 1.046-2.274 2.336 0 1.29 1.018 2.336 2.274 2.336 1.255 0 2.273-1.046 2.273-2.336 0-1.29-1.018-2.337-2.273-2.337zm0 3.634c-.698 0-1.264-.581-1.264-1.298 0-.717.566-1.298 1.264-1.298.697 0 1.263.581 1.263 1.298 0 .717-.566 1.298-1.263 1.298zm9.6-3.634c-1.256 0-2.274 1.046-2.274 2.336 0 1.29 1.018 2.336 2.274 2.336s2.274-1.046 2.274-2.336c0-1.29-1.018-2.337-2.274-2.337zm0 3.634c-.698 0-1.263-.581-1.263-1.298 0-.717.565-1.298 1.263-1.298s1.263.581 1.263 1.298c0 .717-.565 1.298-1.263 1.298zm5.129-17.263a.626.626 0 00-.405-.208L4.825 3.258 4.371 1.83C4.05.875 3.18.23 2.198.22H.505A.512.512 0 000 .74c0 .286.226.519.505.519h1.693c.55.012 1.033.375 1.213.908l3.208 9.943-.252.597a2.551 2.551 0 00.227 2.258 2.336 2.336 0 001.895 1.09h9.828a.512.512 0 00.505-.519.512.512 0 00-.505-.519H8.489a1.282 1.282 0 01-1.061-.623 1.462 1.462 0 01-.127-1.246l.202-.467 10.637-1.142c1.168-.133 2.129-1.006 2.4-2.181l1.213-5.218a.45.45 0 00-.076-.441zm-2.123 5.425a1.734 1.734 0 01-1.54 1.376l-10.51 1.116-2.35-7.32 15.487.234-1.087 4.594z" fill="#6E41E2"/></svg>