<svg width="636" height="215" fill="none" xmlns="http://www.w3.org/2000/svg"><path d="M41.197 66.872v6.978H34.84v-6.978C13.177 66.099.369 55.535.369 37.512S13.177 8.926 34.84 8.152V1.37h6.356v6.784c21.571.773 34.472 11.434 34.472 29.36 0 18.026-12.813 28.687-34.472 29.359zm-6.356-5.715V13.969C17.05 14.742 6.91 22.982 6.91 37.512c0 14.636 10.417 22.775 27.93 23.645zm34.283-23.64c0-14.535-10.321-22.868-27.927-23.544V61.16c17.698-.777 27.927-9.115 27.927-23.645zm20.462-16.959h6.545V61.06l32.351-40.502h5.802v50.968h-6.541V31.02L95.48 71.526h-5.898V20.558h.004zm63.41 0h6.549v22.576h30.506V20.558h6.541v50.968h-6.541V49.043h-30.506v22.483h-6.549V20.558zm98.534 19.379v31.59h-6.271V63.58c-2.949 5.234-8.663 8.431-16.678 8.431-10.972 0-17.702-6.006-17.702-14.825 0-7.848 4.797-14.437 18.714-14.437h15.392v-3.105c0-8.718-4.708-13.465-13.736-13.465-6.264 0-12.166 2.323-16.127 6.006l-2.95-5.14c4.882-4.359 12.078-6.877 19.724-6.877 12.535 0 19.634 6.59 19.634 19.768zm-6.545 16.282v-8.337h-15.211c-9.397 0-12.443 3.877-12.443 9.11 0 5.91 4.52 9.593 12.266 9.593 7.365 0 12.805-3.684 15.388-10.366zm23.959-35.661h6.549v22.576h30.506V20.558h6.542v50.968h-6.542V49.043h-30.506v22.483h-6.549V20.558zm57.517 25.482c0-15.214 10.511-25.87 24.979-25.87 8.204 0 15.114 3.391 18.987 10.073l-4.889 3.49c-3.315-5.137-8.474-7.557-14.098-7.557-10.603 0-18.341 7.945-18.341 19.86 0 12.017 7.738 19.864 18.341 19.864 5.624 0 10.783-2.323 14.098-7.463l4.889 3.489c-3.873 6.589-10.783 10.078-18.987 10.078-14.468.008-24.979-10.75-24.979-25.964zm51.062 0c0-15.113 10.506-25.87 24.701-25.87 14.191 0 24.612 10.753 24.612 25.87s-10.421 25.972-24.612 25.972c-14.195 0-24.701-10.855-24.701-25.972zm42.672 0c0-11.915-7.646-19.86-17.971-19.86-10.326 0-18.068 7.945-18.068 19.86 0 11.92 7.746 19.864 18.068 19.864 10.321 0 17.971-7.944 17.971-19.864zm61.384 11.628c0 8.82-6.083 13.858-18.707 13.858h-22.033V20.558h21.386c10.972 0 17.702 4.65 17.702 13.077 0 5.719-3.134 9.592-8.204 11.535 6.718 1.647 9.856 5.816 9.856 12.498zm-34.38-14.437h14.564c7.465 0 11.611-3.003 11.611-8.718s-4.142-8.523-11.611-8.523h-14.564v17.24zm27.927 14.049c0-6.104-3.684-8.913-11.889-8.913h-16.038V66.1h15.392c8.204 0 12.535-2.712 12.535-8.82zm60.832-2.42c0 10.854-7.1 16.958-19.912 16.767l-19.169-.097V20.558h6.541v17.829l13.829.194c12.166.097 18.711 5.816 18.711 16.278zm-6.634 0c0-7.557-4.608-11.046-13.648-11.143l-12.258-.194V66.2l12.258.194c8.94.093 13.648-3.881 13.648-11.535zm14.745-34.302h6.541v50.968h-6.541V20.558zm25.16 0h6.541V61.06l32.355-40.502h5.806v50.968h-6.542V31.02l-32.266 40.506h-5.894V20.558zM577.522.694h4.701c.088 5.136 3.78 8.333 9.031 8.333 5.256 0 8.94-3.197 9.129-8.333h4.7c-.181 8.139-5.624 12.595-13.829 12.595-8.204 0-13.543-4.456-13.732-12.595zM1.105 161.058c0-19.865 14.375-34.5 33.825-34.5 9.402 0 17.883 3.299 23.596 9.884l-4.33 4.553c-5.252-5.622-11.708-8.038-19.08-8.038-15.578 0-27.281 12.017-27.281 28.101 0 16.08 11.703 28.093 27.28 28.093 7.373 0 13.83-2.421 19.08-8.136l4.331 4.554c-5.713 6.585-14.194 9.976-23.684 9.976-19.358.004-33.737-14.627-33.737-34.487zm111.157-17.056l-24.243 57.076c-4.057 9.985-9.22 13.178-16.127 13.178-4.52 0-8.85-1.55-11.796-4.646l3.042-5.14c2.394 2.521 5.347 3.873 8.847 3.873 4.33 0 7.284-2.125 10.044-8.519l2.121-4.95-21.66-50.868h6.819l18.249 43.311 18.248-43.311h6.456v-.004zm53.735 0v50.973h-6.541v-44.873h-30.418v44.869h-6.545v-50.969h43.504zm61.013 27.62h-40.555c.736 10.656 8.482 17.731 19.077 17.731 5.902 0 11.157-2.23 14.841-6.686l3.685 4.46c-4.332 5.423-11.061 8.333-18.707 8.333-15.115 0-25.437-10.854-25.437-25.967s10.045-25.875 23.685-25.875c13.64 0 23.504 10.559 23.504 25.875.004.57-.093 1.351-.093 2.129zm-40.555-5.141h34.38c-.828-9.984-7.746-16.954-17.236-16.954-9.398 0-16.316 6.974-17.144 16.954zm104.247 3.008c0 15.501-10.325 25.967-24.15 25.967-7.746 0-14.376-3.484-18.43-10.077v28.396h-6.548v-69.772h6.271v10.077c3.962-6.783 10.691-10.466 18.707-10.466 13.829 0 24.15 10.466 24.15 25.875zm-6.548 0c0-11.827-7.835-19.865-18.06-19.865-10.326 0-18.068 8.038-18.068 19.865 0 11.919 7.746 19.864 18.068 19.864 10.225 0 18.06-7.945 18.06-19.864zm74.843-25.487v50.973h-5.987v-40.308l-19.635 34.103h-2.956l-19.627-34.204v40.409h-5.995v-50.973h6.634l20.558 36.726 20.921-36.726h6.087zm54.935 19.383v31.59h-6.272v-7.945c-2.949 5.233-8.662 8.426-16.678 8.426-10.972 0-17.702-6.006-17.702-14.821 0-7.848 4.797-14.441 18.715-14.441h15.392v-3.1c0-8.718-4.709-13.47-13.737-13.47-6.264 0-12.166 2.323-16.127 6.007l-2.949-5.141c4.881-4.355 12.077-6.876 19.723-6.876 12.539 0 19.635 6.593 19.635 19.771zm-6.542 16.275v-8.334h-15.211c-9.397 0-12.443 3.873-12.443 9.107 0 5.913 4.52 9.596 12.266 9.596 7.365.004 12.801-3.679 15.388-10.369zm73.088-10.171c0 15.501-10.326 25.967-24.151 25.967-7.746 0-14.376-3.484-18.43-10.077v28.396h-6.548v-69.772h6.271v10.077c3.962-6.783 10.691-10.466 18.707-10.466 13.829 0 24.151 10.466 24.151 25.875zm-6.549 0c0-11.827-7.835-19.865-18.06-19.865-10.326 0-18.068 8.038-18.068 19.865 0 11.919 7.746 19.864 18.068 19.864 10.225 0 18.06-7.945 18.06-19.864zm38.252 2.804H501.12v22.682h-6.541v-50.973h6.541v22.386h11.149l17.055-22.386h7.1l-19.084 24.71 20.466 26.259h-7.746l-17.879-22.678zm76.59-.671h-40.559c.743 10.656 8.482 17.731 19.084 17.731 5.895 0 11.15-2.23 14.838-6.686l3.692 4.46c-4.331 5.423-11.061 8.333-18.714 8.333-15.115 0-25.437-10.854-25.437-25.967s10.045-25.875 23.685-25.875c13.648 0 23.504 10.559 23.504 25.875 0 .57-.093 1.351-.093 2.129zm-40.559-5.141H582.6c-.836-9.984-7.746-16.954-17.244-16.954-9.398 0-16.308 6.974-17.144 16.954zm87.104-16.379h-18.341v44.869h-6.541v-44.869h-18.348v-6.1h43.23v6.1z" fill="#fff"/></svg>