<svg width="70" height="73" viewBox="0 0 70 73" fill="none" xmlns="http://www.w3.org/2000/svg">
<path d="M65.2829 0.0801344L15.785 8.70209C12.9163 9.20132 10.1775 11.9047 9.67126 14.7408L7.7919 25.2686C9.23894 24.7207 10.9055 24.3203 12.8147 24.0825L12.7774 20.4749H21.5798C21.5552 21.2331 21.5425 22.4349 21.5425 24.0825C25.7694 24.6053 28.8777 25.8801 30.8668 27.9052C32.856 29.932 33.8513 32.5663 33.8513 35.8066C33.8513 42.6561 29.7349 46.5778 21.5052 47.57L21.5798 51.0606H12.7781L12.8155 47.5315C9.15531 47.0739 6.34113 46.0432 4.36994 44.4419L0.0810903 68.4686C-0.425149 71.3031 1.49154 73.1972 4.36098 72.6979L53.8582 64.076C56.7283 63.576 59.4671 60.871 59.9726 58.0365L61.3883 50.1022C58.8601 50.9994 56.1474 51.4539 53.2466 51.4539C47.6272 51.4539 43.4862 50.198 40.8259 47.6885C38.1647 45.179 36.8342 41.5972 36.8342 36.944C36.8342 32.2649 38.164 28.5662 40.8259 25.8471C43.4862 23.128 47.6265 21.7692 53.2466 21.7692C58.6279 21.7692 62.7883 23.1005 65.7324 25.7607L69.5605 4.30947C70.0697 1.47186 68.1516 -0.419882 65.2829 0.0801344Z" fill="url(#paint0_linear)"/>
<path d="M57.7423 30.6697C56.1885 29.9641 54.6025 29.6108 52.9868 29.6108C50.5997 29.6108 48.8219 30.271 47.6526 31.5905C46.4833 32.91 45.8994 34.538 45.8994 36.4729C45.8994 38.564 46.5274 40.2697 47.7825 41.59C49.0377 42.9103 50.9588 43.5705 53.5453 43.5705C55.6098 43.5705 57.2502 43.2102 58.4695 42.4912C59.6873 41.7721 60.5826 40.6285 61.1553 39.0601C61.7713 39.4079 62.4455 39.7697 63.1661 40.1442L64.587 32.18C63.4998 32.7012 62.3671 33.2711 61.1553 33.9242C60.434 32.461 59.2961 31.3754 57.7423 30.6697Z" fill="url(#paint1_linear)"/>
<path d="M12.8893 35.375V31.9243C10.6015 32.5264 9.45764 33.82 9.45764 35.8059C9.45764 36.7997 9.73092 37.6239 10.2782 38.2769C10.8255 38.93 11.6954 39.4128 12.8893 39.7275V35.375Z" fill="url(#paint2_linear)"/>
<path d="M21.5805 31.925L21.5432 35.3757C21.5178 36.3428 21.5059 37.8075 21.5059 39.7683C22.7237 39.4543 23.6129 38.9708 24.1722 38.3162C24.7322 37.6631 25.0114 36.8263 25.0114 35.8067C25.0114 33.8207 23.8676 32.5271 21.5805 31.925Z" fill="url(#paint3_linear)"/>
<defs>
<linearGradient id="paint0_linear" x1="65.4951" y1="3.74015" x2="0.144394" y2="66.68" gradientUnits="userSpaceOnUse">
<stop stop-color="#6656A5"/>
<stop offset="1" stop-color="#482F89"/>
</linearGradient>
<linearGradient id="paint1_linear" x1="61.1415" y1="29.7659" x2="48.7131" y2="41.7358" gradientUnits="userSpaceOnUse">
<stop stop-color="#6656A5"/>
<stop offset="1" stop-color="#482F89"/>
</linearGradient>
<linearGradient id="paint2_linear" x1="14.2438" y1="33.7246" x2="10.0446" y2="37.7688" gradientUnits="userSpaceOnUse">
<stop stop-color="#6656A5"/>
<stop offset="1" stop-color="#482F89"/>
</linearGradient>
<linearGradient id="paint3_linear" x1="24.1656" y1="33.7517" x2="19.9199" y2="37.8408" gradientUnits="userSpaceOnUse">
<stop stop-color="#6656A5"/>
<stop offset="1" stop-color="#482F89"/>
</linearGradient>
</defs>
</svg>
