<svg width="124" height="42" viewBox="0 0 124 42" fill="none" xmlns="http://www.w3.org/2000/svg">
<path d="M8.53409 13.2098V14.5631H7.30136V13.2098C3.09988 13.0599 0.615723 11.0112 0.615723 7.51576C0.615723 4.02035 3.09988 1.97162 7.30136 1.82169V0.506104H8.53409V1.82169C12.7177 1.97162 15.2197 4.03919 15.2197 7.51576C15.2197 11.012 12.7348 13.0795 8.53409 13.2098ZM7.30136 12.1015V2.94967C3.85102 3.0996 1.8843 4.69777 1.8843 7.51576C1.8843 10.3542 3.90478 11.9327 7.30136 12.1015ZM13.9504 7.51655C13.9504 4.69777 11.9486 3.08155 8.53409 2.95046V12.1023C11.9665 11.9516 13.9504 10.3345 13.9504 7.51655Z" fill="black"/>
<path d="M17.9189 4.22754H19.1882V12.0826L25.4624 4.22754H26.5877V14.1125H25.3191V6.25665L19.062 14.1125H17.9181V4.22754H17.9189Z" fill="black"/>
<path d="M30.2167 4.22754H31.4868V8.60603H37.4034V4.22754H38.672V14.1125H37.4034V9.75206H31.4868V14.1125H30.2167V4.22754Z" fill="black"/>
<path d="M49.3268 7.98582V14.1124H48.1105V12.5715C47.5385 13.5865 46.4305 14.2066 44.8759 14.2066C42.7479 14.2066 41.4427 13.0417 41.4427 11.3313C41.4427 9.80927 42.3731 8.53137 45.0723 8.53137H48.0574V7.9293C48.0574 6.23851 47.1443 5.31776 45.3934 5.31776C44.1785 5.31776 43.0339 5.76832 42.2656 6.48263L41.6936 5.48574C42.6404 4.64034 44.0359 4.1521 45.5188 4.1521C47.9499 4.1521 49.3268 5.43001 49.3268 7.98582ZM48.0574 11.1437V9.52669H45.1074C43.2848 9.52669 42.6942 10.2787 42.6942 11.2936C42.6942 12.4397 43.5707 13.154 45.073 13.154C46.5014 13.154 47.5564 12.4397 48.0574 11.1437Z" fill="black"/>
<path d="M52.704 4.22754H53.9741V8.60603H59.8907V4.22754H61.1593V14.1125H59.8907V9.75206H53.9741V14.1125H52.704V4.22754Z" fill="black"/>
<path d="M63.8592 9.16953C63.8592 6.21889 65.8975 4.1521 68.7035 4.1521C70.2946 4.1521 71.6349 4.80989 72.3861 6.10585L71.4378 6.78248C70.7949 5.78638 69.7944 5.31697 68.7035 5.31697C66.6472 5.31697 65.1464 6.85784 65.1464 9.16874C65.1464 11.4993 66.6472 13.0213 68.7035 13.0213C69.7944 13.0213 70.7949 12.5707 71.4378 11.5738L72.3861 12.2505C71.6349 13.5284 70.2946 14.205 68.7035 14.205C65.8975 14.2066 63.8592 12.1202 63.8592 9.16953Z" fill="black"/>
<path d="M73.7621 9.16953C73.7621 6.23851 75.7998 4.1521 78.5528 4.1521C81.305 4.1521 83.3262 6.23773 83.3262 9.16953C83.3262 12.1013 81.305 14.2066 78.5528 14.2066C75.7998 14.2066 73.7621 12.1013 73.7621 9.16953ZM82.0382 9.16953C82.0382 6.85863 80.5553 5.31776 78.5528 5.31776C76.5502 5.31776 75.0486 6.85863 75.0486 9.16953C75.0486 11.4812 76.5509 13.0221 78.5528 13.0221C80.5546 13.0221 82.0382 11.4812 82.0382 9.16953Z" fill="black"/>
<path d="M93.943 11.4248C93.943 13.1352 92.7633 14.1125 90.315 14.1125H86.0418V4.22754H90.1895C92.3175 4.22754 93.6227 5.12945 93.6227 6.76373C93.6227 7.87288 93.0149 8.62408 92.0316 9.00086C93.3345 9.32034 93.943 10.1288 93.943 11.4248ZM87.2753 8.62487H90.0999C91.5477 8.62487 92.3519 8.04243 92.3519 6.93407C92.3519 5.82571 91.5485 5.28095 90.0999 5.28095H87.2753V8.62487ZM92.6916 11.3495C92.6916 10.1657 91.977 9.62098 90.3859 9.62098H87.2753V13.0599H90.2605C91.8516 13.0599 92.6916 12.5339 92.6916 11.3495Z" fill="black"/>
<path d="M104.489 10.88C104.489 12.9853 103.113 14.169 100.628 14.1321L96.9101 14.1133V4.22754H98.1787V7.68527L100.861 7.72295C103.22 7.74179 104.489 8.85093 104.489 10.88ZM103.203 10.88C103.203 9.41453 102.309 8.7379 100.556 8.71906L98.1787 8.68138V13.0795L100.556 13.1172C102.29 13.1352 103.203 12.3644 103.203 10.88ZM106.063 4.22754H107.331V14.1125H106.063V4.22754Z" fill="black"/>
<path d="M110.942 4.22756H112.211V12.0826L118.486 4.22756H119.612V14.1125H118.343V6.25667L112.085 14.1125H110.942V4.22756ZM112.551 0.375H113.462C113.479 1.37111 114.195 1.99122 115.214 1.99122C116.233 1.99122 116.948 1.37111 116.984 0.375H117.896C117.861 1.95355 116.805 2.81778 115.214 2.81778C113.623 2.81778 112.587 1.95355 112.551 0.375Z" fill="black"/>
<path d="M0.758545 31.4765C0.758545 27.6239 3.54659 24.7855 7.31875 24.7855C9.1421 24.7855 10.787 25.4253 11.8951 26.7024L11.0551 27.5855C10.0366 26.4952 8.78445 26.0265 7.35459 26.0265C4.33358 26.0265 2.06372 28.3571 2.06372 31.4765C2.06372 34.5951 4.33358 36.9249 7.35459 36.9249C8.78445 36.9249 10.0366 36.4555 11.0551 35.3471L11.8951 36.2302C10.787 37.5073 9.14211 38.1651 7.30158 38.1651C3.54734 38.1659 0.758545 35.3283 0.758545 31.4765Z" fill="black"/>
<path d="M22.3168 28.1687L17.615 39.2381C16.828 41.1746 15.8268 41.794 14.4872 41.794C13.6107 41.794 12.7707 41.4933 12.1995 40.8928L12.7893 39.8959C13.2538 40.385 13.8265 40.6471 14.5052 40.6471C15.3452 40.6471 15.9179 40.235 16.4532 38.9948L16.8646 38.0348L12.6639 28.1695H13.9862L17.5254 36.5693L21.0646 28.1695H22.3168V28.1687Z" fill="black"/>
<path d="M32.7382 28.1687V38.0545H31.4697V29.3516H25.5702V38.0537H24.3009V28.1687H32.7382Z" fill="black"/>
<path d="M44.5713 33.5252H36.706C36.8486 35.592 38.3509 36.9641 40.4057 36.9641C41.5503 36.9641 42.5695 36.5316 43.2841 35.6674L43.9986 36.5324C43.1586 37.5843 41.8535 38.1486 40.3706 38.1486C37.4392 38.1486 35.4374 36.0434 35.4374 33.1124C35.4374 30.1813 37.3854 28.0941 40.0309 28.0941C42.6763 28.0941 44.5893 30.1421 44.5893 33.1124C44.59 33.223 44.5713 33.3745 44.5713 33.5252ZM36.706 32.5283H43.3737C43.2131 30.5919 41.8714 29.2402 40.0309 29.2402C38.2082 29.2402 36.8665 30.5926 36.706 32.5283Z" fill="black"/>
<path d="M56.9239 33.1116C56.9239 36.118 54.9214 38.1479 52.2401 38.1479C50.7378 38.1479 49.4521 37.472 48.6658 36.1933V41.7006H47.3958V28.1687H48.6121V30.1233C49.3804 28.8077 50.6856 28.0934 52.2401 28.0934C54.9221 28.0934 56.9239 30.1233 56.9239 33.1116ZM55.6539 33.1116C55.6539 30.818 54.1344 29.259 52.1513 29.259C50.1487 29.259 48.6472 30.818 48.6472 33.1116C48.6472 35.4233 50.1495 36.9642 52.1513 36.9642C54.1344 36.9642 55.6539 35.4233 55.6539 33.1116Z" fill="black"/>
<path d="M70.1691 28.1687V38.0545H69.0081V30.2371L65.2001 36.8511H64.6266L60.8201 30.2174V38.0545H59.6576V28.1687H60.9441L64.9313 35.2914L68.9887 28.1687H70.1691Z" fill="black"/>
<path d="M80.8234 31.9279V38.0545H79.607V36.5136C79.0351 37.5286 77.9271 38.1479 76.3725 38.1479C74.2445 38.1479 72.9393 36.983 72.9393 35.2734C72.9393 33.7513 73.8697 32.4727 76.5689 32.4727H79.554V31.8714C79.554 30.1806 78.6409 29.259 76.8899 29.259C75.6751 29.259 74.5305 29.7096 73.7622 30.4239L73.1902 29.427C74.137 28.5824 75.5325 28.0934 77.0154 28.0934C79.4473 28.0934 80.8234 29.3721 80.8234 31.9279ZM79.5548 35.0842V33.468H76.6047C74.7821 33.468 74.1915 34.2192 74.1915 35.2341C74.1915 36.3809 75.0681 37.0953 76.5704 37.0953C77.9987 37.096 79.053 36.3817 79.5548 35.0842Z" fill="black"/>
<path d="M93.7295 33.1116C93.7295 36.118 91.727 38.1479 89.0457 38.1479C87.5434 38.1479 86.2576 37.472 85.4714 36.1933V41.7006H84.2013V28.1687H85.4176V30.1233C86.1859 28.8077 87.4911 28.0934 89.0457 28.0934C91.7277 28.0934 93.7295 30.1233 93.7295 33.1116ZM92.4594 33.1116C92.4594 30.818 90.94 29.259 88.9568 29.259C86.9543 29.259 85.4527 30.818 85.4527 33.1116C85.4527 35.4233 86.955 36.9642 88.9568 36.9642C90.94 36.9642 92.4594 35.4233 92.4594 33.1116Z" fill="black"/>
<path d="M99.8781 33.6556H97.7329V38.0545H96.4644V28.1687H97.7329V32.5103H99.8953L103.203 28.1687H104.58L100.879 32.9609L104.848 38.0537H103.346L99.8781 33.6556Z" fill="black"/>
<path d="M114.732 33.5252H106.866C107.01 35.592 108.511 36.9641 110.567 36.9641C111.711 36.9641 112.73 36.5316 113.445 35.6674L114.161 36.5324C113.321 37.5843 112.016 38.1486 110.532 38.1486C107.6 38.1486 105.598 36.0434 105.598 33.1124C105.598 30.1813 107.546 28.0941 110.192 28.0941C112.839 28.0941 114.75 30.1421 114.75 33.1124C114.75 33.223 114.732 33.3745 114.732 33.5252ZM106.866 32.5283H113.535C113.373 30.5919 112.033 29.2402 110.191 29.2402C108.369 29.2402 107.028 30.5926 106.866 32.5283Z" fill="black"/>
<path d="M123.759 29.3516H120.202V38.0537H118.934V29.3516H115.375V28.1687H123.759V29.3516Z" fill="black"/>
</svg>
