<svg width="360" height="376" viewBox="0 0 360 376" fill="none" xmlns="http://www.w3.org/2000/svg">
<path d="M337.091 0.986992L81.8718 45.4431C67.0804 48.0172 52.9589 61.9563 50.3487 76.5794L40.6584 130.862C48.1196 128.037 56.7126 125.973 66.5568 124.747L66.3643 106.145H111.751C111.624 110.055 111.559 116.252 111.559 124.747C133.353 127.442 149.38 134.015 159.636 144.458C169.893 154.908 175.024 168.491 175.024 185.198C175.024 220.515 153.8 240.736 111.366 245.852L111.751 263.85H66.3682L66.5607 245.653C47.6884 243.294 33.178 237.98 23.0142 229.723L0.900292 353.608C-1.70995 368.223 8.1728 377.99 22.968 375.416L278.183 330.959C292.982 328.381 307.104 314.434 309.71 299.819L317.01 258.909C303.974 263.535 289.987 265.878 275.03 265.878C246.056 265.878 224.704 259.402 210.987 246.463C197.265 233.524 190.405 215.055 190.405 191.063C190.405 166.937 197.262 147.865 210.987 133.845C224.704 119.825 246.052 112.819 275.03 112.819C302.776 112.819 324.228 119.684 339.408 133.4L359.147 22.7941C361.773 8.16295 351.882 -1.59117 337.091 0.986992Z" fill="white"/>
<path d="M298.21 158.712C290.199 155.074 282.021 153.253 273.69 153.253C261.382 153.253 252.215 156.656 246.186 163.46C240.157 170.264 237.147 178.658 237.147 188.634C237.147 199.417 240.384 208.211 246.856 215.019C253.328 221.827 263.234 225.231 276.57 225.231C287.215 225.231 295.673 223.373 301.96 219.665C308.239 215.958 312.855 210.061 315.808 201.974C318.984 203.767 322.461 205.633 326.176 207.564L333.502 166.499C327.897 169.187 322.057 172.125 315.808 175.493C312.089 167.948 306.222 162.351 298.21 158.712Z" fill="white"/>
<path d="M66.9415 182.972V165.18C55.1453 168.284 49.2473 174.954 49.2473 185.194C49.2473 190.318 50.6563 194.568 53.4783 197.935C56.3003 201.303 60.7855 203.792 66.9415 205.415V182.972Z" fill="white"/>
<path d="M111.755 165.184L111.562 182.976C111.431 187.963 111.37 195.515 111.37 205.625C117.649 204.006 122.234 201.513 125.118 198.138C128.005 194.77 129.445 190.456 129.445 185.198C129.445 174.958 123.547 168.288 111.755 165.184Z" fill="white"/>
</svg>
