<svg width="22" height="22" viewBox="0 0 22 22" fill="none" xmlns="http://www.w3.org/2000/svg">
<path d="M6.94758 17.3275C5.69179 17.3275 4.67383 18.3735 4.67383 19.6638C4.67383 20.9541 5.69184 22.0001 6.94758 22.0001C8.20336 22.0001 9.22132 20.954 9.22132 19.6638C9.22137 18.3735 8.20336 17.3275 6.94758 17.3275ZM6.94758 20.9617C6.24993 20.9617 5.68439 20.3807 5.68439 19.6638C5.68439 18.947 6.24993 18.3659 6.94758 18.3659C7.64522 18.3659 8.21076 18.947 8.21076 19.6638C8.21081 20.3807 7.64522 20.9617 6.94758 20.9617Z" fill="#6E41E2"/>
<path d="M16.5479 17.3275C15.2921 17.3275 14.2742 18.3735 14.2742 19.6638C14.2742 20.9541 15.2922 22.0001 16.5479 22.0001C17.8037 22.0001 18.8217 20.954 18.8217 19.6638C18.8217 18.3735 17.8037 17.3275 16.5479 17.3275ZM16.5479 20.9617C15.8503 20.9617 15.2847 20.3807 15.2847 19.6638C15.2847 18.947 15.8503 18.3659 16.5479 18.3659C17.2456 18.3659 17.8111 18.947 17.8111 19.6638C17.8112 20.3807 17.2456 20.9617 16.5479 20.9617Z" fill="#6E41E2"/>
<path d="M21.6766 3.69895C21.5714 3.58085 21.4274 3.50691 21.2724 3.49126L4.82545 3.25763L4.3707 1.82987C4.05034 0.875425 3.18049 0.231081 2.19797 0.220398H0.505283C0.226214 0.220398 0 0.452835 0 0.73958C0 1.02633 0.226214 1.25876 0.505283 1.25876H2.19797C2.74736 1.27123 3.23112 1.6337 3.41067 2.16734L6.61921 12.1097L6.36659 12.7067C6.08482 13.4533 6.16944 14.2936 6.59397 14.9651C7.01443 15.6247 7.7218 16.0317 8.48879 16.0554H18.3165C18.5956 16.0554 18.8218 15.823 18.8218 15.5363C18.8218 15.2495 18.5956 15.0171 18.3165 15.0171H8.48874C8.05561 15.0059 7.6569 14.7718 7.42764 14.394C7.20095 14.0209 7.15438 13.5612 7.30133 13.148L7.50347 12.6807L18.1396 11.5385C19.308 11.4063 20.269 10.5332 20.5398 9.35794L21.7525 4.14018C21.8071 3.98992 21.7781 3.82094 21.6766 3.69895ZM19.5544 9.12436C19.3904 9.8809 18.7653 10.4389 18.0133 10.5002L7.50347 11.6164L5.15389 4.296L20.6408 4.52963L19.5544 9.12436Z" fill="#6E41E2"/>
</svg>
