<svg width="636" height="215" viewBox="0 0 636 215" fill="none" xmlns="http://www.w3.org/2000/svg">
<path d="M41.1969 66.8718V73.8495H34.8407V66.8718C13.1772 66.0988 0.36853 55.5352 0.36853 37.5123C0.36853 19.4894 13.1772 8.9258 34.8407 8.15276V1.36938H41.1969V8.15276C62.768 8.9258 75.6691 19.5865 75.6691 37.5123C75.6691 55.5392 62.8565 66.2 41.1969 66.8718ZM34.8407 61.157V13.9688C17.0502 14.7419 6.90953 22.9823 6.90953 37.5123C6.90953 52.1475 17.3274 60.2868 34.8407 61.157ZM69.1242 37.5163C69.1242 22.9823 58.8025 14.6488 41.1969 13.9729V61.161C58.8949 60.3839 69.1242 52.0464 69.1242 37.5163Z" fill="white"/>
<path d="M89.5862 20.558H96.131V61.0598L128.482 20.558H134.284V71.5263H127.743V31.0204L95.4804 71.5263H89.5823V20.558H89.5862Z" fill="white"/>
<path d="M152.996 20.558H159.545V43.1341H190.051V20.558H196.592V71.5263H190.051V49.0433H159.545V71.5263H152.996V20.558Z" fill="white"/>
<path d="M251.53 39.9368V71.5263H245.259V63.5814C242.31 68.8146 236.596 72.012 228.581 72.012C217.609 72.012 210.879 66.0057 210.879 57.1865C210.879 49.3387 215.676 42.7497 229.593 42.7497H244.985V39.6453C244.985 30.9273 240.277 26.1798 231.249 26.1798C224.985 26.1798 219.083 28.503 215.122 32.1861L212.172 27.0459C217.054 22.687 224.25 20.1695 231.896 20.1695C244.431 20.1695 251.53 26.7586 251.53 39.9368ZM244.985 56.2192V47.8817H229.774C220.377 47.8817 217.331 51.7591 217.331 56.9923C217.331 62.9014 221.851 66.5845 229.597 66.5845C236.962 66.5845 242.402 62.9014 244.985 56.2192Z" fill="white"/>
<path d="M268.944 20.558H275.493V43.1341H305.999V20.558H312.541V71.5263H305.999V49.0433H275.493V71.5263H268.944V20.558Z" fill="white"/>
<path d="M326.461 46.0401C326.461 30.8262 336.972 20.1695 351.44 20.1695C359.644 20.1695 366.554 23.5612 370.427 30.2433L365.538 33.7322C362.223 28.5961 357.064 26.1758 351.44 26.1758C340.837 26.1758 333.099 34.1207 333.099 46.0361C333.099 58.0526 340.837 65.9004 351.44 65.9004C357.064 65.9004 362.223 63.5773 365.538 58.4371L370.427 61.9259C366.554 68.515 359.644 72.0038 351.44 72.0038C336.972 72.0119 326.461 61.2541 326.461 46.0401Z" fill="white"/>
<path d="M377.523 46.0402C377.523 30.9274 388.029 20.1695 402.224 20.1695C416.415 20.1695 426.836 30.9233 426.836 46.0402C426.836 61.157 416.415 72.012 402.224 72.012C388.029 72.012 377.523 61.157 377.523 46.0402ZM420.195 46.0402C420.195 34.1248 412.549 26.1798 402.224 26.1798C391.898 26.1798 384.156 34.1248 384.156 46.0402C384.156 57.9596 391.902 65.9045 402.224 65.9045C412.545 65.9045 420.195 57.9596 420.195 46.0402Z" fill="white"/>
<path d="M481.579 57.6682C481.579 66.4874 475.496 71.5263 462.872 71.5263H440.839V20.558H462.225C473.197 20.558 479.927 25.2084 479.927 33.635C479.927 39.3539 476.793 43.2272 471.723 45.1699C478.441 46.8172 481.579 50.986 481.579 57.6682ZM447.199 43.2312H461.763C469.228 43.2312 473.374 40.2281 473.374 34.5132C473.374 28.7984 469.232 25.9895 461.763 25.9895H447.199V43.2312ZM475.126 57.2796C475.126 51.1762 471.442 48.3673 463.237 48.3673H447.199V66.0988H462.591C470.795 66.0988 475.126 63.3871 475.126 57.2796Z" fill="white"/>
<path d="M535.958 54.8593C535.958 65.7143 528.858 71.8177 516.046 71.6275L496.877 71.5304V20.558H503.418V38.3866L517.247 38.5808C529.413 38.678 535.958 44.3969 535.958 54.8593ZM529.324 54.8593C529.324 47.3029 524.716 43.8141 515.676 43.7169L503.418 43.5226V66.2L515.676 66.3943C524.616 66.4874 529.324 62.5129 529.324 54.8593ZM544.069 20.558H550.61V71.5263H544.069V20.558Z" fill="white"/>
<path d="M569.229 20.558H575.77V61.0599L608.125 20.558H613.931V71.5263H607.389V31.0204L575.123 71.5263H569.229V20.558ZM577.522 0.693604H582.223C582.311 5.8297 586.003 9.0271 591.254 9.0271C596.51 9.0271 600.194 5.8297 600.383 0.693604H605.083C604.902 8.83283 599.459 13.289 591.254 13.289C583.05 13.289 577.711 8.83283 577.522 0.693604Z" fill="white"/>
<path d="M1.10492 161.058C1.10492 141.193 15.4805 126.558 34.9303 126.558C44.3318 126.558 52.8132 129.857 58.5265 136.442L54.1954 140.995C48.9441 135.373 42.4877 132.957 35.1151 132.957C19.5383 132.957 7.83459 144.974 7.83459 161.058C7.83459 177.138 19.5383 189.151 35.1151 189.151C42.4877 189.151 48.9441 186.73 54.1954 181.015L58.5265 185.569C52.8132 192.154 44.3319 195.545 34.8418 195.545C15.4844 195.549 1.10492 180.918 1.10492 161.058Z" fill="white"/>
<path d="M112.262 144.002L88.0195 201.078C83.9617 211.063 78.799 214.256 71.8922 214.256C67.3724 214.256 63.0413 212.706 60.0961 209.61L63.1375 204.47C65.5322 206.991 68.4851 208.343 71.9847 208.343C76.3158 208.343 79.2687 206.218 82.0291 199.824L84.1503 194.874L62.4908 144.006H69.3089L87.5575 187.317L105.806 144.006H112.262V144.002Z" fill="white"/>
<path d="M165.997 144.002V194.975H159.456V150.102H129.038V194.971H122.493V144.002H165.997Z" fill="white"/>
<path d="M227.01 171.622H186.455C187.191 182.278 194.937 189.353 205.532 189.353C211.434 189.353 216.689 187.123 220.373 182.667L224.058 187.127C219.726 192.55 212.997 195.46 205.351 195.46C190.236 195.46 179.914 184.606 179.914 169.493C179.914 154.38 189.959 143.618 203.599 143.618C217.239 143.618 227.103 154.177 227.103 169.493C227.107 170.063 227.01 170.844 227.01 171.622ZM186.455 166.481H220.835C220.007 156.497 213.089 149.527 203.599 149.527C194.201 149.527 187.283 156.501 186.455 166.481Z" fill="white"/>
<path d="M290.702 169.489C290.702 184.99 280.377 195.456 266.552 195.456C258.806 195.456 252.176 191.972 248.122 185.379V213.775H241.574V144.003H247.845V154.08C251.807 147.297 258.536 143.614 266.552 143.614C280.381 143.614 290.702 154.08 290.702 169.489ZM284.154 169.489C284.154 157.662 276.319 149.624 266.094 149.624C255.768 149.624 248.026 157.662 248.026 169.489C248.026 181.408 255.772 189.353 266.094 189.353C276.319 189.353 284.154 181.408 284.154 169.489Z" fill="white"/>
<path d="M358.997 144.002V194.975H353.01V154.667L333.375 188.77H330.419L310.792 154.566V194.975H304.797V144.002H311.431L331.989 180.728L352.91 144.002H358.997Z" fill="white"/>
<path d="M413.932 163.385V194.975H407.66V187.03C404.711 192.263 398.998 195.456 390.982 195.456C380.01 195.456 373.28 189.45 373.28 180.635C373.28 172.787 378.077 166.194 391.995 166.194H407.387V163.094C407.387 154.376 402.678 149.624 393.65 149.624C387.386 149.624 381.484 151.947 377.523 155.631L374.574 150.49C379.455 146.135 386.651 143.614 394.297 143.614C406.836 143.614 413.932 150.207 413.932 163.385ZM407.39 179.66V171.326H392.179C382.782 171.326 379.736 175.199 379.736 180.433C379.736 186.346 384.256 190.029 392.002 190.029C399.367 190.033 404.803 186.35 407.39 179.66Z" fill="white"/>
<path d="M480.478 169.489C480.478 184.99 470.152 195.456 456.327 195.456C448.581 195.456 441.951 191.972 437.897 185.379V213.775H431.349V144.003H437.62V154.08C441.582 147.297 448.311 143.614 456.327 143.614C470.156 143.614 480.478 154.08 480.478 169.489ZM473.929 169.489C473.929 157.662 466.094 149.624 455.869 149.624C445.543 149.624 437.801 157.662 437.801 169.489C437.801 181.408 445.547 189.353 455.869 189.353C466.094 189.353 473.929 181.408 473.929 169.489Z" fill="white"/>
<path d="M512.181 172.293H501.12V194.975H494.579V144.002H501.12V166.388H512.269L529.324 144.002H536.424L517.34 168.712L537.806 194.971H530.06L512.181 172.293Z" fill="white"/>
<path d="M588.771 171.622H548.212C548.955 182.278 556.694 189.353 567.296 189.353C573.191 189.353 578.446 187.123 582.134 182.667L585.826 187.127C581.495 192.55 574.765 195.46 567.112 195.46C551.997 195.46 541.675 184.606 541.675 169.493C541.675 154.38 551.72 143.618 565.36 143.618C579.008 143.618 588.864 154.177 588.864 169.493C588.864 170.063 588.771 170.844 588.771 171.622ZM548.212 166.481H582.6C581.764 156.497 574.854 149.527 565.356 149.527C555.958 149.527 549.048 156.501 548.212 166.481Z" fill="white"/>
<path d="M635.316 150.102H616.975V194.971H610.434V150.102H592.086V144.002H635.316V150.102Z" fill="white"/>
</svg>
